<?xml version="1.0" encoding="UTF-8" standalone="no" ?>
<!DOCTYPE svg PUBLIC "-//W3C//DTD SVG 1.1//EN" "http://www.w3.org/Graphics/SVG/1.1/DTD/svg11.dtd">
<svg xmlns="http://www.w3.org/2000/svg" xmlns:xlink="http://www.w3.org/1999/xlink" version="1.1" width="1080" height="1080" viewBox="0 0 1080 1080" xml:space="preserve">
<desc>Created with Fabric.js 5.2.4</desc>
<defs>
</defs>
<g transform="matrix(1 0 0 1 540 540)" id="ea66cdbf-5106-4ca0-a3c0-2a5680fc2df5"  >
<rect style="stroke: none; stroke-width: 1; stroke-dasharray: none; stroke-linecap: butt; stroke-dashoffset: 0; stroke-linejoin: miter; stroke-miterlimit: 4; fill: rgb(255,255,255); fill-rule: nonzero; opacity: 1; visibility: hidden;" vector-effect="non-scaling-stroke"  x="-540" y="-540" rx="0" ry="0" width="1080" height="1080" />
</g>
<g transform="matrix(1 0 0 1 540 540)" id="5d4550dd-821e-4137-8a65-68c67de8e38b"  >
</g>
<g transform="matrix(1 0 0 1 540 540)" id="6c577196-90c6-4176-b17f-d380ece84f58"  >
<path style="stroke: rgb(0,0,0); stroke-width: 0; stroke-dasharray: none; stroke-linecap: butt; stroke-dashoffset: 0; stroke-linejoin: miter; stroke-miterlimit: 4; fill: rgb(255,255,255); fill-rule: nonzero; opacity: 1;" vector-effect="non-scaling-stroke"  transform=" translate(-163.69, -22.7)" d="M 26.37 10.08 Q 26.95 10.08 27.27 10.29 Q 27.59 10.5 27.75 11.04 Q 27.91 11.57 27.91 12.6 Q 27.91 13.62 27.75 14.16 Q 27.59 14.7 27.27 14.89 Q 26.95 15.09 26.37 15.09 L 25.32 15.09 L 16.77 23.41 Q 18.14 23.49 19.26 24.16 Q 20.39 24.83 21.22 26 Q 21.78 26.81 22.24 27.67 Q 22.71 28.54 23.29 29.79 Q 24.17 31.59 24.51 32.18 Q 25.05 33.08 25.63 33.57 Q 26.22 34.06 26.98 34.06 L 27.22 34.06 Q 27.81 34.06 28.13 34.27 Q 28.44 34.47 28.6 35.01 Q 28.76 35.55 28.76 36.57 Q 28.76 37.6 28.6 38.13 Q 28.44 38.67 28.13 38.87 Q 27.81 39.06 27.22 39.06 L 23.83 39.06 Q 22.34 39.06 21.3 38.15 Q 20.26 37.23 19.38 35.6 Q 18.82 34.55 18.21 33.15 Q 17.77 32.23 17.31 31.3 Q 16.85 30.37 16.46 29.76 Q 15.82 28.81 15.04 28.26 Q 14.26 27.71 13.43 27.71 Q 12.35 27.71 11.5 28.54 L 10.25 29.76 L 10.25 34.06 L 13.06 34.06 Q 13.65 34.06 13.96 34.27 Q 14.28 34.47 14.44 35.01 Q 14.6 35.55 14.6 36.57 Q 14.6 37.6 14.44 38.13 Q 14.28 38.67 13.96 38.87 Q 13.65 39.06 13.06 39.06 L 1.54 39.06 Q 0.95 39.06 0.63 38.87 Q 0.32 38.67 0.16 38.13 Q 0 37.6 0 36.57 Q 0 35.55 0.16 35.01 Q 0.32 34.47 0.63 34.27 Q 0.95 34.06 1.54 34.06 L 4.15 34.06 L 4.15 15.09 L 1.54 15.09 Q 0.95 15.09 0.63 14.89 Q 0.32 14.7 0.16 14.16 Q 0 13.62 0 12.6 Q 0 11.57 0.16 11.04 Q 0.32 10.5 0.63 10.29 Q 0.95 10.08 1.54 10.08 L 11.4 10.08 Q 11.99 10.08 12.3 10.29 Q 12.62 10.5 12.78 11.04 Q 12.94 11.57 12.94 12.6 Q 12.94 13.62 12.78 14.16 Q 12.62 14.7 12.3 14.89 Q 11.99 15.09 11.4 15.09 L 10.25 15.09 L 10.25 22.9 L 18.16 15.09 L 16.87 15.09 Q 16.28 15.09 15.97 14.89 Q 15.65 14.7 15.49 14.16 Q 15.33 13.62 15.33 12.6 Q 15.33 11.57 15.49 11.04 Q 15.65 10.5 15.97 10.29 Q 16.28 10.08 16.87 10.08 L 26.37 10.08 Z M 45.61 16.5 Q 46.44 16.5 46.79 16.86 Q 47.14 17.21 47.14 18.04 L 47.14 34.06 L 54 34.06 Q 54.59 34.06 54.91 34.27 Q 55.22 34.47 55.38 35.01 Q 55.54 35.55 55.54 36.57 Q 55.54 37.6 55.38 38.13 Q 55.22 38.67 54.91 38.87 Q 54.59 39.06 54 39.06 L 34.38 39.06 Q 33.79 39.06 33.47 38.87 Q 33.15 38.67 33 38.13 Q 32.84 37.6 32.84 36.57 Q 32.84 35.55 33 35.01 Q 33.15 34.47 33.47 34.27 Q 33.79 34.06 34.38 34.06 L 41.04 34.06 L 41.04 21.51 L 35.84 21.51 Q 35.25 21.51 34.94 21.31 Q 34.62 21.12 34.46 20.58 Q 34.3 20.04 34.3 19.02 Q 34.3 17.99 34.46 17.46 Q 34.62 16.92 34.94 16.71 Q 35.25 16.5 35.84 16.5 L 45.61 16.5 M 44.02 5.79 Q 45.75 5.79 46.45 6.14 Q 47.14 6.49 47.14 7.32 L 47.14 11.33 Q 47.14 12.16 46.5 12.51 Q 45.85 12.87 44.14 12.87 Q 42.43 12.87 41.74 12.51 Q 41.04 12.16 41.04 11.33 L 41.04 7.32 Q 41.04 6.47 41.67 6.13 Q 42.31 5.79 44.02 5.79 Z M 77.22 15.97 Q 79.44 15.97 81.12 16.94 Q 82.79 17.92 83.69 19.71 Q 84.59 21.51 84.59 23.93 L 84.59 34.06 L 86.47 34.06 Q 87.06 34.06 87.38 34.27 Q 87.7 34.47 87.85 35.01 Q 88.01 35.55 88.01 36.57 Q 88.01 37.6 87.85 38.13 Q 87.7 38.67 87.38 38.87 Q 87.06 39.06 86.47 39.06 L 77.34 39.06 Q 76.76 39.06 76.44 38.87 Q 76.12 38.67 75.96 38.13 Q 75.81 37.6 75.81 36.57 Q 75.81 35.55 75.96 35.01 Q 76.12 34.47 76.44 34.27 Q 76.76 34.06 77.34 34.06 L 78.49 34.06 L 78.49 25.37 Q 78.49 23.46 77.83 22.49 Q 77.17 21.51 75.63 21.51 Q 74.22 21.51 72.95 22.69 Q 71.68 23.88 70.91 25.85 Q 70.14 27.83 70.14 30.08 L 70.14 34.06 L 71.29 34.06 Q 71.88 34.06 72.19 34.27 Q 72.51 34.47 72.67 35.01 Q 72.83 35.55 72.83 36.57 Q 72.83 37.6 72.67 38.13 Q 72.51 38.67 72.19 38.87 Q 71.88 39.06 71.29 39.06 L 62.16 39.06 Q 61.57 39.06 61.25 38.87 Q 60.94 38.67 60.78 38.13 Q 60.62 37.6 60.62 36.57 Q 60.62 35.55 60.78 35.01 Q 60.94 34.47 61.25 34.27 Q 61.57 34.06 62.16 34.06 L 64.04 34.06 L 64.04 21.51 L 61.67 21.51 Q 61.08 21.51 60.77 21.31 Q 60.45 21.12 60.29 20.58 Q 60.13 20.04 60.13 19.02 Q 60.13 17.99 60.29 17.46 Q 60.45 16.92 60.77 16.71 Q 61.08 16.5 61.67 16.5 L 67.63 16.5 Q 68.46 16.5 68.81 16.86 Q 69.17 17.21 69.17 18.04 L 69.17 21.58 Q 72.39 15.97 77.22 15.97 Z M 103.71 15.97 Q 107.42 15.97 110.21 17.48 Q 112.99 18.99 114.49 21.68 Q 115.99 24.37 115.99 27.78 Q 115.99 31.2 114.49 33.89 Q 112.99 36.57 110.21 38.09 Q 107.42 39.6 103.71 39.6 Q 100 39.6 97.22 38.09 Q 94.43 36.57 92.93 33.89 Q 91.43 31.2 91.43 27.78 Q 91.43 24.37 92.93 21.68 Q 94.43 18.99 97.22 17.48 Q 100 15.97 103.71 15.97 M 103.71 21.51 Q 101.95 21.51 100.66 22.28 Q 99.37 23.05 98.67 24.46 Q 97.97 25.88 97.97 27.78 Q 97.97 29.69 98.67 31.1 Q 99.37 32.52 100.66 33.29 Q 101.95 34.06 103.71 34.06 Q 105.47 34.06 106.76 33.29 Q 108.06 32.52 108.75 31.1 Q 109.45 29.69 109.45 27.78 Q 109.45 25.88 108.75 24.46 Q 108.06 23.05 106.76 22.28 Q 105.47 21.51 103.71 21.51 Z M 176.27 10.08 Q 176.86 10.08 177.17 10.29 Q 177.49 10.5 177.65 11.04 Q 177.81 11.57 177.81 12.6 Q 177.81 13.62 177.65 14.16 Q 177.49 14.7 177.17 14.89 Q 176.86 15.09 176.27 15.09 L 175.22 15.09 L 166.67 23.41 Q 168.04 23.49 169.17 24.16 Q 170.29 24.83 171.12 26 Q 171.68 26.81 172.14 27.67 Q 172.61 28.54 173.19 29.79 Q 174.07 31.59 174.41 32.18 Q 174.95 33.08 175.54 33.57 Q 176.12 34.06 176.88 34.06 L 177.12 34.06 Q 177.71 34.06 178.03 34.27 Q 178.34 34.47 178.5 35.01 Q 178.66 35.55 178.66 36.57 Q 178.66 37.6 178.5 38.13 Q 178.34 38.67 178.03 38.87 Q 177.71 39.06 177.12 39.06 L 173.73 39.06 Q 172.24 39.06 171.2 38.15 Q 170.17 37.23 169.29 35.6 Q 168.73 34.55 168.12 33.15 Q 167.68 32.23 167.21 31.3 Q 166.75 30.37 166.36 29.76 Q 165.72 28.81 164.94 28.26 Q 164.16 27.71 163.33 27.71 Q 162.26 27.71 161.4 28.54 L 160.16 29.76 L 160.16 34.06 L 162.96 34.06 Q 163.55 34.06 163.87 34.27 Q 164.18 34.47 164.34 35.01 Q 164.5 35.55 164.5 36.57 Q 164.5 37.6 164.34 38.13 Q 164.18 38.67 163.87 38.87 Q 163.55 39.06 162.96 39.06 L 151.44 39.06 Q 150.85 39.06 150.54 38.87 Q 150.22 38.67 150.06 38.13 Q 149.9 37.6 149.9 36.57 Q 149.9 35.55 150.06 35.01 Q 150.22 34.47 150.54 34.27 Q 150.85 34.06 151.44 34.06 L 154.05 34.06 L 154.05 15.09 L 151.44 15.09 Q 150.85 15.09 150.54 14.89 Q 150.22 14.7 150.06 14.16 Q 149.9 13.62 149.9 12.6 Q 149.9 11.57 150.06 11.04 Q 150.22 10.5 150.54 10.29 Q 150.85 10.08 151.44 10.08 L 161.3 10.08 Q 161.89 10.08 162.21 10.29 Q 162.52 10.5 162.68 11.04 Q 162.84 11.57 162.84 12.6 Q 162.84 13.62 162.68 14.16 Q 162.52 14.7 162.21 14.89 Q 161.89 15.09 161.3 15.09 L 160.16 15.09 L 160.16 22.9 L 168.07 15.09 L 166.77 15.09 Q 166.19 15.09 165.87 14.89 Q 165.55 14.7 165.39 14.16 Q 165.23 13.62 165.23 12.6 Q 165.23 11.57 165.39 11.04 Q 165.55 10.5 165.87 10.29 Q 166.19 10.08 166.77 10.08 L 176.27 10.08 Z M 193.38 15.97 Q 198.75 15.97 201.15 18.29 Q 203.54 20.61 203.54 24.93 L 203.54 31.98 Q 203.54 32.96 203.96 33.51 Q 204.37 34.06 205.15 34.06 L 205.91 34.06 Q 206.49 34.06 206.81 34.27 Q 207.13 34.47 207.29 35.01 Q 207.45 35.55 207.45 36.57 Q 207.45 37.6 207.29 38.13 Q 207.13 38.67 206.81 38.87 Q 206.49 39.06 205.91 39.06 L 203.17 39.06 Q 201.66 39.06 200.5 38.44 Q 199.34 37.82 198.73 36.47 Q 196.8 37.96 194.65 38.78 Q 192.5 39.6 190.23 39.6 Q 187.48 39.6 185.47 38.66 Q 183.47 37.72 182.41 35.97 Q 181.35 34.23 181.35 31.86 Q 181.35 28.44 183.76 26.56 Q 186.18 24.68 190.53 24.68 Q 193.77 24.68 197.44 25.42 L 197.44 24.71 Q 197.44 23.07 196.41 22.29 Q 195.39 21.51 192.8 21.51 Q 191.36 21.51 189.59 21.86 Q 187.82 22.22 186.08 22.8 Q 185.67 22.92 185.38 22.92 Q 184.77 22.92 184.29 22.47 Q 183.81 22.02 183.42 20.95 Q 183.06 19.87 183.06 19.19 Q 183.06 17.94 184.18 17.53 Q 186.35 16.75 188.79 16.36 Q 191.24 15.97 193.38 15.97 M 191.14 29.71 Q 189.43 29.71 188.54 30.32 Q 187.65 30.93 187.65 32.1 Q 187.65 33.25 188.51 33.85 Q 189.38 34.45 191.02 34.45 Q 192.7 34.45 194.35 33.78 Q 196 33.11 197.44 31.93 L 197.44 30.37 Q 194.21 29.71 191.14 29.71 Z M 232.23 15.97 Q 234.47 15.97 235.77 17.8 Q 237.06 19.63 237.06 23.36 L 237.06 37.52 Q 237.06 38.35 236.71 38.71 Q 236.35 39.06 235.52 39.06 L 232.5 39.06 Q 231.67 39.06 231.31 38.71 Q 230.96 38.35 230.96 37.52 L 230.96 24.76 Q 230.96 23.46 230.65 22.85 Q 230.35 22.24 229.69 22.24 Q 228.54 22.24 227.87 24.02 Q 227.2 25.81 227.2 29.22 L 227.2 37.52 Q 227.2 38.35 226.84 38.71 Q 226.49 39.06 225.66 39.06 L 222.63 39.06 Q 221.8 39.06 221.45 38.71 Q 221.09 38.35 221.09 37.52 L 221.09 24.76 Q 221.09 23.46 220.79 22.85 Q 220.48 22.24 219.82 22.24 Q 218.68 22.24 218.01 24.02 Q 217.33 25.81 217.33 29.22 L 217.33 37.52 Q 217.33 38.35 216.98 38.71 Q 216.63 39.06 215.8 39.06 L 212.77 39.06 Q 211.94 39.06 211.58 38.71 Q 211.23 38.35 211.23 37.52 L 211.23 21.51 L 209.84 21.51 Q 209.25 21.51 208.94 21.31 Q 208.62 21.12 208.46 20.58 Q 208.3 20.04 208.3 19.02 Q 208.3 17.99 208.46 17.46 Q 208.62 16.92 208.94 16.71 Q 209.25 16.5 209.84 16.5 L 214.09 16.5 Q 214.92 16.5 215.27 16.86 Q 215.63 17.21 215.63 18.04 L 215.63 21.56 Q 216.77 18.8 218.32 17.38 Q 219.87 15.97 221.73 15.97 Q 225.34 15.97 226.39 20.92 Q 227.51 18.48 229 17.22 Q 230.49 15.97 232.23 15.97 Z M 253.96 15.97 Q 257.67 15.97 260.28 17.57 Q 262.89 19.17 264.22 22.01 Q 265.55 24.85 265.55 28.52 Q 265.55 29.35 265.2 29.69 Q 264.84 30.03 264.01 30.03 L 248.34 30.03 Q 248.8 31.98 250.33 33.02 Q 251.86 34.06 254.2 34.06 Q 257.98 34.06 262.4 32.71 Q 262.7 32.62 262.99 32.62 Q 263.53 32.62 263.92 33.11 Q 264.31 33.59 264.62 34.77 Q 264.87 35.67 264.87 36.3 Q 264.87 36.94 264.59 37.29 Q 264.31 37.65 263.67 37.87 Q 261.23 38.67 258.69 39.14 Q 256.15 39.6 253.71 39.6 Q 250 39.6 247.31 38.09 Q 244.63 36.57 243.23 33.9 Q 241.82 31.23 241.82 27.78 Q 241.82 24.37 243.29 21.68 Q 244.75 18.99 247.51 17.48 Q 250.27 15.97 253.96 15.97 M 253.96 21.51 Q 249.49 21.51 248.44 25.27 L 259.18 25.27 Q 258.76 23.49 257.41 22.5 Q 256.05 21.51 253.96 21.51 Z M 291.24 15.97 Q 293.31 15.97 295.14 17.33 Q 296.22 18.12 296.22 19.38 Q 296.22 20.19 295.78 21.29 Q 295.34 22.39 294.79 22.95 Q 294.24 23.51 293.63 23.51 Q 293.29 23.51 292.9 23.32 Q 291.53 22.56 290.06 22.56 Q 288.18 22.56 286.55 23.75 Q 284.91 24.95 283.92 27.05 Q 282.93 29.15 282.93 31.74 L 282.93 34.06 L 289.94 34.06 Q 290.53 34.06 290.84 34.27 Q 291.16 34.47 291.32 35.01 Q 291.48 35.55 291.48 36.57 Q 291.48 37.6 291.32 38.13 Q 291.16 38.67 290.84 38.87 Q 290.53 39.06 289.94 39.06 L 273.24 39.06 Q 272.66 39.06 272.34 38.87 Q 272.02 38.67 271.86 38.13 Q 271.7 37.6 271.7 36.57 Q 271.7 35.55 271.86 35.01 Q 272.02 34.47 272.34 34.27 Q 272.66 34.06 273.24 34.06 L 276.83 34.06 L 276.83 21.51 L 273.97 21.51 Q 273.39 21.51 273.07 21.31 Q 272.75 21.12 272.6 20.58 Q 272.44 20.04 272.44 19.02 Q 272.44 17.99 272.6 17.46 Q 272.75 16.92 273.07 16.71 Q 273.39 16.5 273.97 16.5 L 280.66 16.5 Q 281.49 16.5 281.85 16.86 Q 282.2 17.21 282.2 18.04 L 282.2 23.34 Q 284.03 19.8 286.41 17.88 Q 288.79 15.97 291.24 15.97 Z M 313.31 15.97 Q 318.68 15.97 321.07 18.29 Q 323.46 20.61 323.46 24.93 L 323.46 31.98 Q 323.46 32.96 323.88 33.51 Q 324.29 34.06 325.07 34.06 L 325.83 34.06 Q 326.42 34.06 326.73 34.27 Q 327.05 34.47 327.21 35.01 Q 327.37 35.55 327.37 36.57 Q 327.37 37.6 327.21 38.13 Q 327.05 38.67 326.73 38.87 Q 326.42 39.06 325.83 39.06 L 323.1 39.06 Q 321.58 39.06 320.42 38.44 Q 319.26 37.82 318.65 36.47 Q 316.72 37.96 314.58 38.78 Q 312.43 39.6 310.16 39.6 Q 307.4 39.6 305.4 38.66 Q 303.39 37.72 302.33 35.97 Q 301.27 34.23 301.27 31.86 Q 301.27 28.44 303.69 26.56 Q 306.1 24.68 310.45 24.68 Q 313.7 24.68 317.36 25.42 L 317.36 24.71 Q 317.36 23.07 316.33 22.29 Q 315.31 21.51 312.72 21.51 Q 311.28 21.51 309.51 21.86 Q 307.74 22.22 306.01 22.8 Q 305.59 22.92 305.3 22.92 Q 304.69 22.92 304.21 22.47 Q 303.74 22.02 303.34 20.95 Q 302.98 19.87 302.98 19.19 Q 302.98 17.94 304.1 17.53 Q 306.27 16.75 308.72 16.36 Q 311.16 15.97 313.31 15.97 M 311.06 29.71 Q 309.35 29.71 308.46 30.32 Q 307.57 30.93 307.57 32.1 Q 307.57 33.25 308.44 33.85 Q 309.3 34.45 310.94 34.45 Q 312.62 34.45 314.27 33.78 Q 315.92 33.11 317.36 31.93 L 317.36 30.37 Q 314.14 29.71 311.06 29.71 Z" stroke-linecap="round" />
</g>
</svg>