<?xml version="1.0" encoding="UTF-8"?>
<!DOCTYPE svg PUBLIC "-//W3C//DTD SVG 1.1//EN" "http://www.w3.org/Graphics/SVG/1.1/DTD/svg11.dtd">
<!-- Creator: CorelDRAW 2019 (64-Bit) -->
<svg xmlns="http://www.w3.org/2000/svg" xml:space="preserve" width="198px" height="32px" version="1.1" shape-rendering="geometricPrecision" text-rendering="geometricPrecision" image-rendering="optimizeQuality" fill-rule="evenodd" clip-rule="evenodd"
viewBox="0 0 2030.7 326.3"
 xmlns:xlink="http://www.w3.org/1999/xlink"
 xmlns:xodm="http://www.corel.com/coreldraw/odm/2003">
 <g id="Layer_x0020_1">
  <metadata id="CorelCorpID_0Corel-Layer"/>
  <g id="_1727698219296">
   <g>
    <path fill="#F3CE13" fill-rule="nonzero" d="M826.3 82.5c26.7,0 46.1,5.8 58,17.4 12,11.6 17.9,28.1 17.9,49.7l0 52.8c0,4.8 1.1,8.7 3.1,11.4 2.1,2.7 5.1,4.1 9,4.1l5.7 0c2.9,0 5.2,0.6 6.7,1.6 1.6,1 2.8,2.9 3.6,5.6 0.8,2.7 1.2,6.5 1.2,11.6 0,5.1 -0.4,9.1 -1.2,11.8 -0.8,2.6 -2,4.4 -3.6,5.4 -1.5,1 -3.8,1.5 -6.7,1.5l-20.5 0c-7.6,0 -14.2,-1.6 -20,-4.7 -5.8,-3.1 -10.2,-8 -13.2,-14.7 -9.6,7.5 -19.8,13.2 -30.5,17.3 -10.8,4.1 -21.8,6.1 -33.1,6.1 -13.8,0 -25.6,-2.3 -35.7,-7 -9.9,-4.8 -17.5,-11.4 -22.8,-20.2 -5.3,-8.6 -8,-18.9 -8,-30.7 0,-17.1 6,-30.3 18.1,-39.7 12.1,-9.3 28.9,-14 50.6,-14 16.2,0 33.4,1.8 51.7,5.4l0 -5.3c0,-8.1 -2.6,-14.1 -7.7,-18 -5.1,-3.9 -14.1,-5.8 -27,-5.8 -7.2,0 -15.2,0.8 -24,2.6 -8.9,1.7 -17.6,4.1 -26.2,7 -2.2,0.6 -3.9,0.9 -5.3,0.9 -3.1,0 -5.8,-1.1 -8.2,-3.4 -2.4,-2.2 -4.5,-6 -6.5,-11.4 -1.8,-5.3 -2.7,-9.7 -2.7,-13.1 0,-6.2 2.8,-10.4 8.4,-12.4 10.8,-4 22.4,-6.8 34.5,-8.8 12.2,-2 23.7,-3 34.4,-3zm-16.9 102.9c-8.5,0 -15,1.5 -19.4,4.6 -4.4,3 -6.7,7.5 -6.7,13.3 0,5.7 2.2,10.1 6.5,13 4.3,3 10.6,4.5 18.7,4.5 8.4,0 16.8,-1.7 25,-5 8.2,-3.3 15.9,-7.9 23.1,-13.7l0 -11.8c-16.1,-3.3 -31.8,-4.9 -47.2,-4.9z"/>
    <path fill="#F3CE13" fill-rule="nonzero" d="M614.7 82.5c16,0 29.9,4 41.9,11.8 11.9,7.8 21.1,18.4 27.4,31.8 6.3,13.4 9.5,28.3 9.5,44.8 0,16.6 -3.2,31.6 -9.5,45 -6.3,13.4 -15.5,24 -27.4,31.8 -12,7.8 -25.9,11.7 -41.9,11.7 -9.5,0 -18.3,-1.8 -26.5,-5.6 -8.1,-3.7 -15.3,-9 -21.5,-15.9l0 50.9 30.5 0c2.9,0 5.2,0.5 6.8,1.5 1.5,0.9 2.7,2.8 3.5,5.4 0.8,2.7 1.2,6.6 1.2,11.7 0,5.2 -0.4,9.1 -1.2,11.7 -0.8,2.7 -2,4.6 -3.5,5.6 -1.6,1 -3.9,1.6 -6.8,1.6l-92.1 0c-2.9,0 -5.2,-0.5 -6.7,-1.5 -1.6,-1 -2.8,-2.8 -3.6,-5.5 -0.8,-2.7 -1.2,-6.6 -1.2,-11.7 0,-5.1 0.4,-9 1.2,-11.7 0.8,-2.7 2,-4.5 3.6,-5.5 1.5,-1.1 3.8,-1.6 6.7,-1.6l15.9 0 0 -164.7 -15.9 0c-2.9,0 -5.2,-0.5 -6.7,-1.5 -1.6,-1 -2.8,-2.8 -3.6,-5.5 -0.8,-2.7 -1.2,-6.6 -1.2,-11.7 0,-5.1 0.4,-9 1.2,-11.7 0.8,-2.7 2,-4.6 3.6,-5.6 1.5,-1 3.8,-1.5 6.7,-1.5l42.8 0c4.1,0 7,0.9 8.9,2.6 1.7,1.8 2.6,4.7 2.6,8.9l0 15.4c6.3,-9.8 14.3,-17.4 23.7,-22.8 9.5,-5.4 20,-8.2 31.6,-8.2zm-7.3 41.6c-7.7,0 -14.9,1.8 -21.1,5.4 -6.4,3.7 -11.5,9 -15.2,16.2 -3.8,7.1 -5.7,15.5 -5.7,25.2 0,9.8 1.9,18.3 5.7,25.4 3.7,7.1 8.8,12.5 15.2,16.2 6.2,3.6 13.4,5.4 21.1,5.4 7.6,0 14.1,-1.9 19.8,-5.7 5.6,-3.8 9.9,-9.3 12.9,-16.4 2.9,-7 4.4,-15.3 4.4,-24.9 0,-9.4 -1.5,-17.7 -4.4,-24.8 -3,-7 -7.3,-12.5 -12.9,-16.3 -5.7,-3.9 -12.2,-5.7 -19.8,-5.7z"/>
    <path fill="#F3CE13" fill-rule="nonzero" d="M386.6 52c-1.3,2.7 -2.8,4.9 -4.5,6.4 -1.7,1.6 -4.1,2.7 -7.1,3.5 -3,0.7 -14.3,0.9 -19.4,0.9 -5.1,-0.1 -8.9,-0.5 -11.1,-1.4 -2.3,-0.8 -3.6,-2 -4,-3.6 -0.2,-1.5 0.3,-3.8 1.6,-6.7l18.6 -39.9c1.4,-2.9 2.9,-5.1 4.6,-6.7 1.7,-1.6 4.1,-2.7 7.2,-3.5 3,-0.7 7.1,-1.1 12.2,-1 5.1,0.1 16,0.7 18.3,1.4 2.3,0.9 3.6,2.1 3.9,3.7 0.3,1.5 -0.2,3.7 -1.4,6.5 -10,20.7 -9.2,19.6 -18.9,40.4z"/>
    <path fill="#F3CE13" fill-rule="nonzero" d="M361.4 82.5c26.7,0 46.1,5.8 58,17.4 12,11.6 17.9,28.1 17.9,49.7l0 52.8c0,4.8 1.1,8.7 3.1,11.4 2.1,2.7 5.1,4.1 9,4.1l5.7 0c2.8,0 5.2,0.6 6.7,1.6 1.6,1 2.8,2.9 3.6,5.6 0.8,2.7 1.2,6.5 1.2,11.6 0,5.1 -0.4,9.1 -1.2,11.8 -0.8,2.6 -2,4.4 -3.6,5.4 -1.5,1 -3.9,1.5 -6.7,1.5l-20.5 0c-7.6,0 -14.3,-1.6 -20,-4.7 -5.8,-3.1 -10.2,-8 -13.3,-14.7 -9.6,7.5 -19.7,13.2 -30.5,17.3 -10.7,4.1 -21.7,6.1 -33,6.1 -13.8,0 -25.6,-2.3 -35.7,-7 -10,-4.8 -17.6,-11.4 -22.9,-20.2 -5.3,-8.6 -7.9,-18.9 -7.9,-30.7 0,-17.1 6,-30.3 18,-39.7 12.1,-9.3 29,-14 50.7,-14 16.2,0 33.4,1.8 51.7,5.4l0 -5.3c0,-8.1 -2.6,-14.1 -7.7,-18 -5.1,-3.9 -14.2,-5.8 -27.1,-5.8 -7.1,0 -15.1,0.8 -24,2.6 -8.8,1.7 -17.6,4.1 -26.2,7 -2.1,0.6 -3.8,0.9 -5.3,0.9 -3,0 -5.8,-1.1 -8.1,-3.4 -2.4,-2.2 -4.5,-6 -6.5,-11.4 -1.8,-5.3 -2.8,-9.7 -2.8,-13.1 0,-6.2 2.8,-10.4 8.5,-12.4 10.8,-4 22.3,-6.8 34.5,-8.8 12.2,-2 23.6,-3 34.4,-3zm-16.9 102.9c-8.5,0 -15,1.5 -19.4,4.6 -4.5,3 -6.7,7.5 -6.7,13.3 0,5.7 2.2,10.1 6.5,13 4.3,3 10.6,4.5 18.7,4.5 8.4,0 16.8,-1.7 24.9,-5 8.3,-3.3 16,-7.9 23.2,-13.7l0 -11.8c-16.1,-3.3 -31.8,-4.9 -47.2,-4.9z"/>
    <path fill="#F3CE13" fill-rule="nonzero" d="M149 38.5c28,0 49.2,6.4 63.7,19 14.4,12.6 21.6,30.7 21.6,54.5 0,23.7 -7.2,41.9 -21.6,54.6 -14.5,12.6 -35.7,19 -63.7,19l-15.3 0 0 32.3 27.5 0c3,0 5.2,0.6 6.8,1.6 1.6,1 2.8,2.9 3.6,5.6 0.7,2.7 1.2,6.5 1.2,11.6 0,5.1 -0.5,9.1 -1.2,11.8 -0.8,2.6 -2,4.4 -3.6,5.4 -1.6,1 -3.8,1.5 -6.8,1.5l-80.6 0 -4.7 -0.4 -3.6 -35.8c12.8,-4.5 25.5,-9.7 38.2,-14.6 1.4,-0.5 2.6,-0.6 3.7,-0.4l0 -23.1c-1.1,0.4 -2.3,0.7 -3.7,1.2l-34.6 13.2 0 -37.4 34.6 -13.3c1.4,-0.5 2.6,-0.6 3.7,-0.4l0 -23.1c-1.1,0.4 -2.3,0.7 -3.7,1.2l-34.6 13.2 0 -37.4 34.6 -13.3c1.4,-0.5 2.6,-0.6 3.7,-0.4l0 -23.1c-1.1,0.4 -2.3,0.7 -3.7,1.2l-34.6 13.3 0 -37.5 73.1 0zm-15.3 39.3l0 68.5 9.7 0c14.5,0 25.4,-2.8 32.8,-8.4 7.3,-5.6 11,-14.2 11,-25.9 0,-11.7 -3.7,-20.3 -11,-25.9 -7.4,-5.5 -18.3,-8.3 -32.8,-8.3l-9.7 0z"/>
   </g>
   <g>
    <path fill="white" fill-rule="nonzero" d="M1313.6 52c-1.3,2.7 -2.9,4.9 -4.5,6.4 -1.7,1.6 -4.1,2.7 -7.1,3.5 -3.1,0.7 -14.3,0.9 -19.4,0.9 -5.1,-0.1 -8.9,-0.5 -11.1,-1.4 -2.3,-0.8 -3.7,-2 -4,-3.6 -0.3,-1.5 0.2,-3.8 1.6,-6.7l18.6 -39.9c1.3,-2.9 2.9,-5.1 4.6,-6.7 1.7,-1.6 4.1,-2.7 7.2,-3.5 3,-0.7 7.1,-1.1 12.2,-1 5.1,0.1 16,0.7 18.3,1.4 2.3,0.9 3.6,2.1 3.9,3.7 0.3,1.5 -0.2,3.7 -1.5,6.5 -10,20.7 -9.1,19.6 -18.8,40.4z"/>
    <path fill="white" fill-rule="nonzero" d="M2000.7 82.5c7.8,0 13.4,1 16.7,2.7 3.3,1.8 4.9,4.8 4.9,8.9l0 38.5c0,4.2 -1.3,7.1 -3.9,8.9 -2.6,1.8 -7,2.6 -12.9,2.6 -6.5,0 -10.9,-1.3 -13.3,-3.8 -7.3,-7.7 -15.4,-13.1 -24.7,-16.4 -9.2,-3.2 -20,-4.8 -32.2,-4.8 -7.2,0 -12.8,1.3 -16.9,3.8 -4,2.6 -6.1,6 -6.1,10.3 0,5.1 4.6,8.8 13.5,10.9 4.8,1.2 12.9,2.4 24.4,3.5 11.2,1.3 20.7,2.6 28.1,4 7.6,1.3 14.6,3.4 21.4,6.1 9.7,4 17.3,9.6 22.8,16.7 5.5,7.2 8.2,16.7 8.2,28.5 0,11.6 -2.9,21.6 -8.5,30.1 -5.6,8.5 -13.9,15 -24.8,19.6 -11,4.5 -24.1,6.8 -39.4,6.8 -16.9,0 -32.7,-4.3 -47.1,-13l0 1.5c0,4.1 -1.8,7.1 -5.3,8.8 -3.6,1.8 -9.3,2.7 -17.1,2.7 -7.7,0 -13.2,-0.9 -16.5,-2.7 -3.3,-1.7 -5,-4.7 -5,-8.8l0 -40.7c0,-4.1 1.5,-7 4.3,-8.8 2.9,-1.8 7.3,-2.8 13.3,-2.8 7.4,0 12.4,1.7 15.1,5.2 6.1,7.6 13.9,13.2 23.4,16.8 9.5,3.5 19.9,5.2 31.2,5.2 19.5,0 29.3,-5 29.3,-15.1 0,-3.1 -1.4,-5.5 -4.1,-7.3 -2.8,-1.8 -6.8,-3.4 -12.2,-4.6 -3.1,-0.6 -10.1,-1.7 -21.2,-3.3 -12.3,-1.4 -22.8,-3.1 -31.7,-5 -8.8,-1.9 -16.8,-4.8 -24,-8.8 -16.8,-9.3 -25.2,-23.9 -25.2,-43.9 0,-10.6 2.8,-19.8 8.6,-27.8 5.7,-7.9 13.6,-13.9 23.7,-18.1 10,-4.2 21.3,-6.4 33.8,-6.4 18.4,0 34.8,4.5 49,13.4l0 -1.8c0,-4.1 1.5,-7.1 4.5,-8.9 3,-1.7 8.2,-2.7 15.9,-2.7z"/>
    <path fill="white" fill-rule="nonzero" d="M1778.2 82.5c11.2,0 20,4.6 26.5,13.7 6.4,9.2 9.6,23.1 9.6,41.7l0 105.9c0,4.2 -0.9,7.1 -2.6,9 -1.8,1.7 -4.7,2.6 -8.9,2.6l-22.6 0c-4.2,0 -7.1,-0.9 -8.9,-2.6 -1.8,-1.9 -2.6,-4.8 -2.6,-9l0 -95.5c0,-6.4 -0.8,-11.2 -2.3,-14.2 -1.5,-3.1 -4,-4.6 -7.3,-4.6 -5.6,0 -10.2,4.5 -13.6,13.3 -3.3,8.9 -4.9,21.9 -4.9,38.9l0 62.1c0,4.2 -1,7.1 -2.7,9 -1.8,1.7 -4.8,2.6 -8.9,2.6l-22.6 0c-4.2,0 -7.1,-0.9 -8.9,-2.6 -1.8,-1.9 -2.7,-4.8 -2.7,-9l0 -95.5c0,-6.4 -0.7,-11.2 -2.2,-14.2 -1.6,-3.1 -3.9,-4.6 -7.2,-4.6 -5.8,0 -10.3,4.5 -13.6,13.3 -3.4,8.9 -5.1,21.9 -5.1,38.9l0 62.1c0,4.2 -0.8,7.1 -2.6,9 -1.8,1.7 -4.7,2.6 -8.9,2.6l-22.6 0c-4.2,0 -7.2,-0.9 -8.9,-2.6 -1.7,-1.9 -2.6,-4.8 -2.6,-9l0 -119.7 -10.4 0c-3,0 -5.2,-0.5 -6.8,-1.5 -1.6,-1 -2.8,-2.8 -3.6,-5.5 -0.8,-2.7 -1.2,-6.6 -1.2,-11.7 0,-5.1 0.4,-9 1.2,-11.7 0.8,-2.7 2,-4.6 3.6,-5.6 1.6,-1 3.8,-1.5 6.8,-1.5l31.7 0c4.2,0 7.1,0.9 8.9,2.6 1.8,1.8 2.6,4.7 2.6,8.9l0 26.3c5.8,-13.7 12.5,-24.2 20.2,-31.3 7.8,-7 16.3,-10.6 25.5,-10.6 18,0 29.7,12.4 34.9,37.1 5.6,-12.1 12.1,-21.4 19.5,-27.7 7.5,-6.2 15.5,-9.4 24.2,-9.4z"/>
    <path fill="white" fill-rule="nonzero" d="M1504.6 15.7c4.2,0 7.1,0.9 8.9,2.7 1.8,1.7 2.6,4.6 2.6,8.8l0 190.7 51.4 0c2.9,0 5.1,0.6 6.7,1.6 1.6,1 2.8,2.9 3.6,5.6 0.8,2.7 1.2,6.5 1.2,11.6 0,5.1 -0.4,9.1 -1.2,11.8 -0.8,2.6 -2,4.4 -3.6,5.4 -1.6,1 -3.8,1.5 -6.7,1.5l-146.9 0c-2.9,0 -5.2,-0.5 -6.8,-1.5 -1.5,-1 -2.7,-2.8 -3.5,-5.4 -0.8,-2.7 -1.2,-6.7 -1.2,-11.8 0,-5.1 0.4,-8.9 1.2,-11.6 0.8,-2.7 2,-4.6 3.5,-5.6 1.6,-1 3.9,-1.6 6.8,-1.6l49.8 0 0 -164.7 -42.5 0c-2.9,0 -5.2,-0.5 -6.8,-1.5 -1.5,-1 -2.7,-2.8 -3.5,-5.5 -0.8,-2.6 -1.2,-6.6 -1.2,-11.7 0,-5.1 0.4,-9 1.2,-11.7 0.8,-2.6 2,-4.5 3.5,-5.6 1.6,-0.9 3.9,-1.5 6.8,-1.5l76.7 0z"/>
    <path fill="white" fill-rule="nonzero" d="M1297.5 86.6c4.1,0 7,0.9 8.8,2.6 1.8,1.8 2.6,4.7 2.6,8.9l0 119.8 51.4 0c2.9,0 5.1,0.6 6.7,1.6 1.6,1 2.8,2.9 3.6,5.6 0.8,2.7 1.2,6.5 1.2,11.6 0,5.1 -0.4,9.1 -1.2,11.8 -0.8,2.6 -2,4.4 -3.6,5.4 -1.6,1 -3.8,1.5 -6.7,1.5l-146.9 0c-2.9,0 -5.2,-0.5 -6.8,-1.5 -1.5,-1 -2.7,-2.8 -3.5,-5.4 -0.8,-2.7 -1.2,-6.7 -1.2,-11.8 0,-5.1 0.4,-8.9 1.2,-11.6 0.8,-2.7 2,-4.6 3.5,-5.6 1.6,-1 3.9,-1.6 6.8,-1.6l49.9 0 0 -93.8 -38.9 0c-3,0 -5.2,-0.5 -6.8,-1.5 -1.6,-1 -2.8,-2.8 -3.6,-5.5 -0.8,-2.7 -1.2,-6.6 -1.2,-11.7 0,-5.1 0.4,-9 1.2,-11.7 0.8,-2.7 2,-4.6 3.6,-5.6 1.6,-1 3.8,-1.5 6.8,-1.5l73.1 0z"/>
    <path fill="white" fill-rule="nonzero" d="M1158.2 38.5c4.2,0 7.3,0.9 9.1,2.8 1.8,1.8 2.7,4.9 2.7,9.1l0 55.2c0,4.1 -1.7,7.1 -5.3,8.9 -3.5,1.7 -9.2,2.6 -17,2.6 -7.5,0 -12.7,-0.8 -15.5,-2.6 -2.8,-1.7 -4.2,-4.7 -4.2,-8.9l0 -27.8 -71.2 0 0 55.7 55.5 0c4.3,0 7.3,1.4 8.9,4.2 1.7,2.8 2.6,8 2.6,15.5 0,7.6 -0.9,12.8 -2.6,15.5 -1.6,2.7 -4.6,4.1 -8.9,4.1l-55.5 0 0 45.1 39.6 0c2.9,0 5.2,0.6 6.8,1.6 1.5,1 2.7,2.9 3.5,5.6 0.8,2.7 1.2,6.5 1.2,11.6 0,5.1 -0.4,9.1 -1.2,11.8 -0.8,2.6 -2,4.4 -3.5,5.4 -1.6,1 -3.9,1.5 -6.8,1.5l-108.5 0c-2.9,0 -5.2,-0.5 -6.8,-1.5 -1.5,-1 -2.7,-2.8 -3.5,-5.4 -0.8,-2.7 -1.2,-6.7 -1.2,-11.8 0,-5.1 0.4,-8.9 1.2,-11.6 0.8,-2.7 2,-4.6 3.5,-5.6 1.6,-1 3.9,-1.6 6.8,-1.6l23.2 0 0 -141.9 -23.2 0c-2.9,0 -5.2,-0.5 -6.8,-1.4 -1.5,-1 -2.7,-2.9 -3.5,-5.5 -0.8,-2.7 -1.2,-6.6 -1.2,-11.8 0,-5.1 0.4,-8.9 1.2,-11.6 0.8,-2.7 2,-4.6 3.5,-5.6 1.6,-1 3.9,-1.6 6.8,-1.6l170.3 0z"/>
    <path fill="white" fill-rule="nonzero" d="M74.4 218.4l-35.6 -3.1c-1.5,-0.1 -2.8,0.3 -3.9,0.8l-3.8 -22.8c1.2,0 2.5,-0.1 4,0l35.6 3.1 -6.2 -37 -35.6 -3c-1.4,-0.2 -2.7,0.2 -3.8,0.7l-3.9 -22.8c1.2,0 2.6,-0.1 4,0l35.6 3.1 -6.2 -36.9 -35.5 -3.1c-1.5,-0.1 -2.8,0.2 -3.9,0.7l-3.8 -22.8c1.2,0 2.5,-0.1 4,0.1l35.5 3 -6.1 -36.9 -35.6 -3.1c-2.9,-0.2 -5.1,1.3 -6.4,2.4 -1.4,1.2 -2.3,3.2 -2.6,6 -0.4,2.8 -0.1,6.7 0.7,11.7 10.2,59.3 20.5,118.9 29.8,178.3l0.1 0c0.8,4.4 1.7,7.7 2.8,10 1.3,2.5 2.7,4.2 4.5,5 2.6,1.2 36.9,3.1 42.5,3.6l-6.2 -37z"/>
   </g>
  </g>
 </g>
</svg>
