<?xml version="1.0" encoding="UTF-8"?>
<!DOCTYPE svg PUBLIC "-//W3C//DTD SVG 1.1//EN" "http://www.w3.org/Graphics/SVG/1.1/DTD/svg11.dtd">
<!-- Creator: CorelDRAW 2019 (64-Bit) -->
<svg xmlns="http://www.w3.org/2000/svg" xml:space="preserve" width="100px" height="100px" version="1.1" shape-rendering="geometricPrecision" text-rendering="geometricPrecision" image-rendering="optimizeQuality" fill-rule="evenodd" clip-rule="evenodd"
viewBox="0 0 486.2 486.2"
 xmlns:xlink="http://www.w3.org/1999/xlink"
 xmlns:xodm="http://www.corel.com/coreldraw/odm/2003">
 <g id="Layer_x0020_1">
  <metadata id="CorelCorpID_0Corel-Layer"/>
  <path fill="white" d="M182.3 314.3l0 -142.4c0,-30.3 22.8,-17.7 35.4,-9.7 13.6,8.6 26.5,16.7 40.3,25.2 13.8,8.5 26.7,16.6 40.3,25.2 9.9,6.1 35.5,17.2 35.5,30.5 0,13.2 -25,23.9 -34.9,30.2l-80.6 50.4c-12.5,7.8 -36,21.5 -36,-9.4zm-182.3 -77.8l0 13.2c0,125.4 111.1,236.5 236.5,236.5l13.2 0c125.4,0 236.5,-111.1 236.5,-236.5l0 -13.2c0,-125.4 -111.1,-236.5 -236.5,-236.5l-13.2 0c-125.4,0 -236.5,111.1 -236.5,236.5z"/>
 </g>
</svg>
